<svg xmlns="http://www.w3.org/2000/svg" width="15" height="15" viewBox="0 0 15 15">
    <path fill="#FFF" fill-rule="nonzero" d="M14.823 14.825a.594.594 0 0 1-.42.175H9.597a.6.6 0 1 1 0-1.2H13.8V9.597a.6.6 0 1 1 1.2 0v4.806a.594.594 0 0 1-.174.421l-.003.001zM14.824.174A.594.594 0 0 0 14.403 0H9.597a.6.6 0 0 0 0 1.2H13.8v4.203a.6.6 0 0 0 1.2 0V.597a.594.594 0 0 0-.175-.42V.174zM.176 14.826A.594.594 0 0 0 .597 15h4.806a.6.6 0 0 0 0-1.2H1.2V9.597a.6.6 0 0 0-1.2 0v4.806c0 .163.067.312.175.42v.003zM.174.176A.594.594 0 0 0 0 .597v4.806a.6.6 0 0 0 1.2 0V1.2h4.203a.6.6 0 0 0 0-1.2H.597a.594.594 0 0 0-.42.175H.174z" opacity=".502"/>
</svg>
