<svg xmlns="http://www.w3.org/2000/svg" width="17" height="13" viewBox="0 0 17 13">
    <path fill="#D9D9D9" fill-rule="evenodd" d="M16.86 6.49c-.003-.023-.004-.047-.008-.07-.004-.02-.01-.038-.016-.058-.007-.023-.012-.046-.021-.068-.007-.019-.018-.036-.027-.054-.011-.022-.021-.045-.035-.065-.01-.018-.025-.033-.038-.049-.014-.017-.025-.036-.04-.053L11.056.21a.673.673 0 0 0-.959-.016.688.688 0 0 0-.016.967l4.441 4.637H.678C.304 5.797 0 6.122 0 6.5c0 .378.304.703.678.703h13.923l-4.505 4.634a.688.688 0 0 0 .01.967.672.672 0 0 0 .958-.009l5.607-5.767c.015-.015.026-.033.04-.05.013-.016.028-.032.04-.05.013-.02.022-.04.032-.06.01-.02.022-.04.03-.06.009-.02.014-.041.02-.062.006-.021.014-.042.018-.064.004-.02.005-.042.007-.063.002-.022.006-.045.006-.068 0-.02-.003-.04-.005-.06"/>
</svg>
