<svg xmlns="http://www.w3.org/2000/svg" width="18" height="18" viewBox="0 0 18 18">
    <path fill="#FFF" fill-rule="evenodd" d="M1.854 1.565h14.292c.159 0 .289.13.289.29v13.481l-2.266-2.832a.683.683 0 0 0-1.073-.065l-2.653 2.93-3.83-5.72a.698.698 0 0 0-.566-.257.682.682 0 0 0-.541.307l-3.94 5.536V1.855c0-.16.13-.29.288-.29M16.146 0C17.168 0 18 .832 18 1.854v14.292A1.857 1.857 0 0 1 16.146 18H1.854A1.857 1.857 0 0 1 0 16.146V1.854C0 .832.832 0 1.854 0h14.292zm-3.934 8.05a2.267 2.267 0 0 0 2.264-2.264 2.267 2.267 0 0 0-2.264-2.264 2.267 2.267 0 0 0-2.264 2.264 2.267 2.267 0 0 0 2.264 2.264z" opacity=".502"/>
</svg>
