<svg xmlns="http://www.w3.org/2000/svg" width="17" height="20" viewBox="0 0 17 20">
    <path fill="#FFF" fill-rule="nonzero" d="M13.764 13.895c-.788 0-1.488.306-2.035.788l-5.908-3.26c.175-.395.284-.81.284-1.248 0-.46-.11-.875-.284-1.247l6.148-3.436a2.99 2.99 0 0 0 1.795.591 3.035 3.035 0 0 0 3.041-3.041A3.035 3.035 0 0 0 13.764 0a3.035 3.035 0 0 0-3.042 3.042c0 .612.175 1.16.482 1.64L5.186 7.988a3.027 3.027 0 0 0-2.144-.875A3.035 3.035 0 0 0 0 10.153a3.035 3.035 0 0 0 3.042 3.042c.831 0 1.597-.328 2.144-.876l5.864 3.239c-.218.416-.35.897-.35 1.4A3.035 3.035 0 0 0 13.742 20a3.035 3.035 0 0 0 3.041-3.042 3.022 3.022 0 0 0-3.02-3.063z" opacity=".502"/>
</svg>
