<svg width="25px" height="25px" viewBox="0 0 25 25" version="1.1" xmlns="http://www.w3.org/2000/svg">
    <g id="Page-2" stroke="none" stroke-width="1" fill="none" fill-rule="evenodd">
        <g id="pie-diagram" fill="#9D9D9D">
            <g id="Shape">
                <path d="M12.8570842,8.48711499 L0.634291581,8.48711499 C0.337936345,9.36344969 0.126694045,10.2790554 0.0317761807,11.2304928 L11.6382957,11.2304928 L12.8570842,8.48711499 Z" fill-rule="nonzero"></path>
                <path d="M14.7167864,4.30174538 L3.03952772,4.30174538 C2.37628337,5.06406571 1.80554415,5.90533881 1.34132444,6.81298768 L13.600924,6.81298768 L14.7167864,4.30174538 Z" fill-rule="nonzero"></path>
                <path d="M23.0081622,19.138193 C24.2257187,17.211037 24.9405544,14.9344456 24.9405544,12.4856776 C24.9405544,7.84383984 22.401694,3.80200205 18.6422485,1.65056468 L13.9998973,12.1003593 L23.0081622,19.138193 Z" fill-rule="nonzero"></path>
                <path d="M0.0317761807,13.7417864 C0.662166324,20.0483573 5.98290554,24.9722793 12.4549795,24.9722793 C15.9985626,24.9722793 19.1904004,23.4889117 21.462885,21.1178645 L12.0224846,13.7417864 L0.0317761807,13.7417864 Z" fill-rule="nonzero"></path>
                <path d="M16.3488706,0.627823409 C15.1226386,0.225154004 13.8159651,0 12.4549795,0 C9.57181725,0 6.92453799,0.986601643 4.81098563,2.6276694 L15.4603183,2.6276694 L16.3488706,0.627823409 Z" fill-rule="nonzero"></path>
            </g>
        </g>
    </g>
</svg>