<svg xmlns="http://www.w3.org/2000/svg" width="22" height="18" viewBox="0 0 22 18">
    <path fill="#FFF" fill-rule="nonzero" d="M20.905 1c.42 0 .761.34.76.761v12.492a.76.76 0 0 1-.76.761h-7.877v2.177l1.878.002s.31-.016.31.171v.34s-.008.173-.363.173l-8.008.003s-.31.007-.31-.172v-.351s-.015-.17.31-.17h1.868v-2.173H.761a.761.761 0 0 1-.761-.76V1.76C0 1.341.34 1 .761 1h20.144zm-8.478 9.002c-.289 0-.546.118-.746.303L9.515 9.048a1.23 1.23 0 0 0 .105-.48c0-.178-.04-.338-.105-.481l2.254-1.325c.185.144.41.228.658.228.617 0 1.115-.523 1.115-1.173s-.498-1.172-1.115-1.172c-.618 0-1.115.523-1.115 1.172 0 .236.064.447.176.633L9.283 7.724c-.2-.211-.482-.338-.786-.338-.618 0-1.115.523-1.115 1.173s.497 1.173 1.115 1.173c.304 0 .585-.127.786-.338l2.15 1.249c-.081.16-.13.346-.13.54 0 .65.498 1.172 1.116 1.172.617 0 1.115-.523 1.115-1.172.008-.658-.498-1.181-1.107-1.181z" opacity=".502"/>
</svg>
