<svg xmlns="http://www.w3.org/2000/svg" width="17" height="18" viewBox="0 0 17 18">
    <path fill="#FFF" fill-rule="nonzero" d="M13.387 12.505c-.709 0-1.339.276-1.831.71L6.239 10.28c.157-.354.256-.729.256-1.122 0-.414-.099-.788-.256-1.123l5.533-3.092a2.691 2.691 0 0 0 1.615.532 2.732 2.732 0 0 0 2.738-2.738A2.732 2.732 0 0 0 13.387 0a2.732 2.732 0 0 0-2.737 2.737c0 .552.157 1.044.433 1.477L5.667 7.188a2.724 2.724 0 0 0-1.93-.788A2.732 2.732 0 0 0 1 9.138a2.732 2.732 0 0 0 2.737 2.737c.749 0 1.438-.295 1.93-.787l5.278 2.914a2.716 2.716 0 0 0-.315 1.26A2.732 2.732 0 0 0 13.368 18a2.732 2.732 0 0 0 2.737-2.737 2.72 2.72 0 0 0-2.718-2.758z" opacity=".502"/>
</svg>
