<svg xmlns="http://www.w3.org/2000/svg" width="14" height="18" viewBox="0 0 14 18">
    <path fill="#A7ACB2" fill-rule="nonzero" d="M10.304 8.299c0 2.132-1.72 3.852-3.83 3.852-2.11 0-3.83-1.72-3.83-3.852a.817.817 0 0 0-.822-.811.817.817 0 0 0-.822.811 5.476 5.476 0 0 0 4.522 5.392v1.502c0 .448.363.81.81.81h.018c.447 0 .81-.36.81-.81v-1.462a5.475 5.475 0 0 0 4.788-5.432.817.817 0 0 0-.822-.811.817.817 0 0 0-.822.811zm-1.662.82l-4.697-6.24a2.456 2.456 0 0 1 4.845.577v4.82c0 .296-.052.58-.148.843zM1.156.503L1 .63l12.253 16.278-.621.503-5.216-6.928a2.458 2.458 0 0 1-3.539-2.205V5.78L0 .629.777 0l.38.503z" opacity=".35"/>
</svg>
