<svg xmlns="http://www.w3.org/2000/svg" width="11" height="15" viewBox="0 0 11 15">
    <path fill="#B7BDC4" fill-rule="nonzero" d="M9.412 2.273c-.448 0-.81.381-.81.851v3.49h-.379V1.847c0-.47-.362-.85-.81-.85-.447 0-.81.38-.81.85v4.768h-.377V.85c0-.47-.363-.851-.81-.851-.448 0-.81.38-.81.851v5.764h-.379V1.847c0-.47-.363-.85-.81-.85-.447 0-.81.38-.81.85V9.464L1.49 7.757a.787.787 0 0 0-1.12-.25.878.878 0 0 0-.24 1.177l2.283 4.15C3.085 13.975 4.571 15 6.114 15c2.465 0 4.002-1.802 4.002-4.028l.106-3.816V3.125c0-.47-.363-.852-.81-.852z"/>
</svg>
