<svg xmlns="http://www.w3.org/2000/svg" xmlns:xlink="http://www.w3.org/1999/xlink" width="15" height="19" viewBox="0 0 15 19">
    <defs>
        <path id="a" d="M9.412 2.273c-.448 0-.81.381-.81.851v3.49h-.379V1.847c0-.47-.362-.85-.81-.85-.447 0-.81.38-.81.85v4.768h-.377V.85c0-.47-.363-.851-.81-.851-.448 0-.81.38-.81.851v5.764h-.379V1.847c0-.47-.363-.85-.81-.85-.447 0-.81.38-.81.85V9.464L1.49 7.757a.787.787 0 0 0-1.12-.25.878.878 0 0 0-.24 1.177l2.283 4.15C3.085 13.975 4.571 15 6.114 15c2.465 0 4.002-1.802 4.002-4.028l.106-3.816V3.125c0-.47-.363-.852-.81-.852z"/>
    </defs>
    <g fill="none" fill-rule="nonzero" transform="translate(2 2)">
        <use fill="#22CB5E" fill-rule="evenodd" xlink:href="#a"/>
        <path stroke="#1CF268" stroke-opacity=".219" stroke-width="2" d="M1.608 6.554V1.847c0-1.011.798-1.85 1.81-1.85.127 0 .252.013.373.039A1.803 1.803 0 0 1 5.415-1c.72 0 1.332.425 1.625 1.035a1.813 1.813 0 0 1 2.1 1.258c.089-.013.18-.02.272-.02 1.01 0 1.81.84 1.81 1.852v4.059l-.106 3.788c0 2.86-2.06 5.028-5.002 5.028-1.82 0-3.666-1.135-4.577-2.684L.56 11.54l-.001-.002-.897-1.631c-.326-.593-.326-.593-.382-.698-.522-.846-.295-1.97.526-2.529a1.783 1.783 0 0 1 1.802-.126z"/>
    </g>
</svg>
