<svg xmlns="http://www.w3.org/2000/svg" width="14" height="18" viewBox="0 0 14 18">
    <path fill="#A7ACB2" fill-rule="evenodd" d="M3.79 6.658l.441-.408L0 .63.777 0 4.97 5.569l1.435-1.325 4.165 3.844-2.185 2.017 5.022 6.672-.777.63-4.983-6.62-.442.407-3.415-4.536zm-.739.682l3.415 4.536-1.303 1.202a.653.653 0 0 1-.433.266l-3.968.647a.685.685 0 0 1-.572-.167.57.57 0 0 1-.18-.528l.7-3.662a.6.6 0 0 1 .288-.4L3.051 7.34zm9.663-2.508a.855.855 0 0 1 0 1.276l-1.212 1.119-4.164-3.844 1.212-1.12c.38-.351 1-.351 1.382 0l2.782 2.569z" opacity=".35"/>
</svg>
